<?xml version="1.0" standalone="no"?>
<!DOCTYPE svg PUBLIC "-//W3C//DTD SVG 20010904//EN"
 "http://www.w3.org/TR/2001/REC-SVG-20010904/DTD/svg10.dtd">
<svg version="1.0" xmlns="http://www.w3.org/2000/svg"
 width="418.000000pt" height="440.000000pt" viewBox="0 0 418.000000 440.000000"
 preserveAspectRatio="xMidYMid meet">

<g transform="translate(0.000000,440.000000) scale(0.100000,-0.100000)"
fill="#000000" stroke="none">
<path d="M1795 4275 c-111 -56 -105 -245 10 -299 32 -16 46 -16 131 -5 79 10
92 13 77 24 -19 14 -34 111 -21 144 7 19 4 21 -34 21 -31 0 -38 -3 -30 -13 11
-13 32 -147 25 -159 -9 -17 -108 -8 -138 12 -16 11 -27 20 -22 20 4 0 1 10 -7
23 -8 12 -18 51 -21 87 -5 55 -3 70 14 98 37 58 97 68 141 23 l29 -28 10 30
c6 16 11 31 11 31 0 1 -33 3 -72 4 -49 1 -83 -3 -103 -13z"/>
<path d="M2680 4201 c0 -43 -89 -257 -114 -273 -13 -8 -8 -13 22 -22 19 -7 22
-4 22 23 0 46 71 234 83 221 3 -3 10 -54 17 -115 26 -246 33 -251 104 -68 27
69 58 135 68 145 22 22 22 23 -8 32 -18 6 -22 2 -27 -31 -7 -39 -64 -191 -79
-208 -5 -5 -8 -1 -8 10 0 11 -7 74 -15 140 -10 90 -11 121 -2 127 7 4 1 11
-17 18 -16 6 -33 13 -37 16 -5 3 -9 -4 -9 -15z"/>
<path d="M1375 4166 c-25 -10 -27 -13 -11 -19 15 -6 17 -17 14 -69 -3 -53 -6
-63 -21 -62 -24 2 -22 -23 3 -31 17 -5 20 -15 20 -61 0 -30 -7 -68 -15 -84
-18 -35 -18 -35 35 -14 39 16 39 16 19 33 -14 11 -23 33 -26 64 -3 26 -3 47 1
47 4 0 23 -7 43 -15 19 -8 37 -15 38 -15 1 0 8 14 15 31 l13 30 34 -33 c25
-24 33 -39 30 -56 -4 -18 -1 -22 12 -16 9 3 32 11 51 16 31 9 33 11 14 18 -11
5 -42 32 -68 61 -44 49 -46 54 -30 66 14 10 15 16 6 25 -8 8 -15 8 -27 -2 -14
-12 -21 -8 -55 31 -22 24 -39 50 -40 57 0 15 -16 15 -55 -2z m66 -91 c23 -25
46 -42 51 -39 5 4 2 -8 -7 -25 -9 -17 -14 -35 -11 -39 2 -4 -4 -9 -15 -9 -10
-1 -19 2 -19 6 0 4 -11 13 -25 19 -23 10 -25 17 -25 72 0 33 2 60 5 60 2 0 23
-20 46 -45z"/>
<path d="M1815 4169 c-12 -18 10 -31 46 -26 33 4 33 4 -6 6 -27 1 -35 4 -26
10 8 5 9 11 3 15 -6 3 -14 1 -17 -5z"/>
<path d="M2260 4131 c0 -9 99 -25 108 -17 8 8 -46 26 -79 26 -16 0 -29 -4 -29
-9z"/>
<path d="M3040 4049 c0 -12 -122 -210 -148 -241 -8 -10 -20 -15 -26 -12 -6 3
0 -4 14 -15 34 -29 124 -71 150 -71 77 0 165 105 162 193 -1 40 -24 70 -87
117 -58 43 -65 46 -65 29z m82 -56 c14 -16 28 -36 32 -47 10 -30 -14 -98 -52
-145 -55 -68 -114 -84 -166 -46 -18 14 -17 16 15 67 19 29 39 60 44 69 49 83
81 129 90 129 6 0 23 -12 37 -27z"/>
<path d="M1060 4002 l-35 -15 35 -7 c20 -3 40 -9 46 -13 7 -4 9 5 6 24 -5 33
-5 33 -52 11z"/>
<path d="M966 3935 c-30 -46 -16 -94 34 -120 27 -14 35 -14 90 5 74 25 112 25
133 2 25 -27 21 -62 -10 -94 -15 -15 -22 -28 -16 -28 24 0 61 59 61 97 1 79
-44 104 -135 78 -69 -20 -108 -22 -128 -5 -18 15 -20 61 -3 78 8 8 8 12 1 12
-6 0 -18 -11 -27 -25z"/>
<path d="M2068 3808 c-32 -115 -228 -792 -262 -907 -15 -47 -26 -88 -26 -91 0
-4 28 6 62 23 35 16 98 37 140 45 94 20 111 13 175 -68 49 -62 77 -129 88
-209 l7 -53 -36 4 c-20 2 -38 -1 -40 -7 -2 -5 -5 -1 -5 10 -1 11 -6 27 -11 35
-6 10 -7 3 -3 -24 5 -31 3 -38 -8 -34 -10 3 -14 23 -15 64 -1 32 0 49 3 37 8
-40 18 -24 15 22 -3 36 -7 43 -17 35 -10 -8 -14 -7 -18 2 -4 11 -6 10 -6 0 -1
-7 -6 -10 -11 -7 -6 4 -18 1 -27 -7 -15 -12 -15 -11 -5 8 8 15 8 24 0 32 -8 8
-8 15 1 26 9 11 9 16 0 22 -8 5 -9 3 -4 -6 6 -9 2 -10 -16 -5 -38 11 -45 24
-19 33 34 12 9 23 -29 12 -17 -5 -31 -6 -31 -4 0 3 -6 -1 -14 -8 -8 -7 -12
-15 -11 -18 2 -3 -6 -7 -18 -7 -17 -2 -19 0 -7 7 21 13 6 12 -23 -1 -18 -8
-23 -17 -20 -33 4 -16 2 -18 -5 -7 -8 11 -12 3 -17 -30 -4 -24 -6 -49 -5 -54
5 -25 -1 -45 -15 -45 -8 0 -15 -4 -15 -10 0 -17 -18 -11 -39 12 l-20 21 -10
-25 c-5 -14 -16 -28 -23 -31 -10 -3 -10 -7 -1 -17 10 -10 14 -8 24 13 16 35
26 34 34 -4 5 -20 11 -29 21 -25 8 3 14 -1 14 -9 0 -8 -6 -15 -12 -15 -9 0
-10 -2 -2 -8 6 -4 11 -25 10 -47 -1 -36 -3 -40 -26 -37 -29 3 -63 39 -56 59 3
7 1 13 -5 13 -6 0 -9 6 -6 14 3 8 -5 27 -19 43 -13 15 -22 34 -19 41 3 8 5 20
5 29 0 9 6 13 15 9 8 -3 15 -3 15 0 0 3 -7 12 -15 20 -9 10 -15 11 -15 4 0
-12 -24 -40 -35 -40 -4 0 -4 7 -1 16 3 8 1 24 -5 35 -9 18 -4 27 37 66 l47 46
-95 -6 c-52 -4 -303 -10 -559 -13 -255 -3 -465 -7 -467 -9 -2 -2 54 -49 125
-105 126 -102 203 -166 292 -246 48 -42 268 -227 333 -279 20 -16 60 -49 87
-73 l50 -43 -12 33 c-14 38 -17 296 -4 343 l8 29 16 -32 c9 -18 33 -52 54 -76
33 -38 37 -46 25 -61 -14 -19 -11 -106 5 -136 6 -12 -2 -26 -31 -53 -47 -43
-49 -60 -14 -92 14 -13 22 -29 19 -34 -3 -5 15 -30 40 -54 42 -39 46 -47 43
-82 l-3 -39 -28 30 c-15 17 -46 67 -69 113 -23 45 -42 81 -44 80 -1 -2 -9 -28
-17 -58 -8 -30 -36 -127 -62 -215 -26 -88 -48 -164 -49 -170 -11 -44 -21 -80
-41 -140 -63 -193 -146 -478 -143 -491 2 -12 21 -3 78 38 41 29 125 89 185
133 61 43 169 122 240 175 72 53 180 132 240 175 158 113 155 110 148 159 -3
22 -12 50 -19 61 -18 25 -18 35 0 35 10 0 12 7 9 21 -6 20 -7 20 -18 5 -17
-23 -34 -20 -45 9 -5 14 -14 25 -20 25 -5 0 -10 13 -10 29 0 17 -6 31 -16 35
-22 9 -24 8 -24 -9 0 -8 -9 -15 -20 -15 -11 0 -20 5 -20 10 0 17 -19 11 -30
-10 -9 -16 -7 -22 6 -27 10 -4 19 -2 22 5 6 20 20 13 15 -8 -3 -10 -14 -22
-24 -25 -21 -7 -26 -25 -7 -25 6 0 4 -6 -7 -13 -10 -8 -15 -19 -11 -25 4 -7 2
-12 -5 -12 -22 0 -1 -13 26 -15 22 -3 27 2 27 25 0 3 -2 14 -6 25 -4 14 0 24
14 32 16 11 18 10 14 -2 -10 -24 5 -87 18 -79 8 5 9 -1 5 -17 -4 -13 -7 -30
-7 -36 0 -17 -25 -17 -42 0 -7 7 -39 21 -70 31 -36 11 -58 23 -58 33 0 8 -5
11 -12 7 -7 -4 -5 2 5 13 9 11 17 32 17 47 0 20 4 27 14 23 11 -5 15 3 14 31
0 20 6 51 12 67 l12 30 12 -25 c7 -17 19 -25 36 -26 16 0 24 -5 22 -15 -2 -9
0 -11 7 -4 6 6 8 21 4 33 -4 17 -10 21 -26 16 -17 -5 -19 -3 -14 16 5 19 2 21
-20 17 -24 -4 -25 -3 -21 39 3 45 -16 68 -35 42 -5 -8 -6 -2 -2 17 4 17 8 37
10 45 2 8 7 24 11 35 4 11 4 17 -1 13 -8 -8 -35 15 -35 31 0 6 8 8 18 4 13 -5
14 -3 6 6 -9 10 -17 10 -32 2 -11 -6 -28 -11 -37 -11 -9 0 -31 -10 -48 -22
-18 -13 -47 -31 -65 -41 l-34 -18 19 26 c10 14 25 23 34 21 10 -2 16 3 15 12
-1 10 17 21 54 32 60 19 155 70 129 70 -8 0 -24 -7 -35 -15 -10 -8 -23 -14
-29 -15 -19 0 50 40 70 41 11 0 14 3 8 6 -7 2 -30 -1 -50 -8 -37 -12 -50 -11
-46 3 2 4 -20 10 -47 14 -28 4 -50 12 -50 18 0 6 -4 6 -9 -2 -6 -11 -9 -10
-13 5 -4 16 2 18 71 15 218 -7 320 -27 334 -64 2 -7 7 -10 11 -7 15 14 -48 69
-119 103 -46 22 -75 58 -68 84 5 20 15 26 36 23 11 -2 8 17 -4 24 -6 4 -8 13
-5 21 3 8 2 14 -2 14 -4 0 -8 8 -9 18 -1 9 -5 32 -9 50 -3 18 -2 45 4 60 19
50 26 95 12 87 -8 -5 -11 -3 -8 6 3 8 12 13 20 11 22 -3 41 51 25 69 -7 7 -3
6 9 -4 11 -9 25 -17 31 -17 6 0 22 -10 37 -21 21 -17 26 -27 22 -45 -5 -18 2
-33 26 -60 37 -40 48 -94 23 -114 -31 -26 -13 -30 20 -4 24 18 43 25 60 22 20
-4 23 -3 14 8 -6 8 -8 21 -5 30 5 12 13 14 38 8 72 -15 108 -62 108 -139 0
-28 4 -44 10 -40 29 18 0 120 -45 160 -19 16 -24 32 -27 85 -5 80 -46 174
-107 243 l-43 47 29 0 c78 -1 220 -51 292 -104 19 -14 36 -24 39 -22 2 2 -32
112 -76 243 -43 131 -125 385 -182 566 -57 180 -107 327 -111 327 -3 0 -18
-42 -31 -92z m-42 -1084 c17 -14 17 -15 1 -10 -10 3 -23 6 -28 6 -5 0 -9 5 -9
10 0 14 13 12 36 -6z m-435 -136 c-6 -18 -13 -58 -15 -88 -2 -30 -9 -68 -15
-83 -10 -27 -5 -84 7 -73 8 9 31 -27 31 -49 0 -17 -3 -16 -25 10 -14 17 -37
54 -51 83 -25 54 -25 54 -7 95 26 58 77 147 82 142 2 -2 -1 -19 -7 -37z m23 3
c-4 -17 -9 -30 -11 -27 -3 2 -2 19 2 36 9 41 17 33 9 -9z m223 -53 c-2 -13 -4
-5 -4 17 -1 22 1 32 4 23 2 -10 2 -28 0 -40z m-123 -16 c2 -4 -2 -15 -9 -25
-11 -15 -14 -15 -25 -3 -6 9 -9 20 -5 26 7 12 32 13 39 2z m-89 -88 c14 -22
15 -28 4 -35 -8 -5 -20 -9 -28 -9 -11 0 -11 3 -1 15 6 8 9 23 5 35 -9 28 -1
25 20 -6z m246 -37 c-15 -15 -24 -2 -16 24 7 20 8 21 17 5 7 -12 7 -21 -1 -29z
m-160 -13 c17 -19 20 -28 11 -31 -10 -4 -9 -9 4 -24 9 -10 13 -19 7 -19 -23 0
-80 80 -66 94 11 10 19 7 44 -20z m113 10 c9 -3 16 -15 16 -26 0 -10 5 -16 10
-13 6 3 10 -1 10 -9 0 -28 -29 -15 -49 21 -17 34 -15 38 13 27z m-153 -81 c13
-16 12 -17 -3 -4 -10 7 -18 15 -18 17 0 8 8 3 21 -13z m-74 -175 c-3 -8 -6 -5
-6 6 -1 11 2 17 5 13 3 -3 4 -12 1 -19z m153 12 c-12 -8 -12 -10 5 -11 11 0
-9 -7 -43 -14 -35 -8 -70 -19 -78 -26 -8 -7 -17 -10 -20 -7 -4 5 27 22 99 53
37 16 59 19 37 5z m20 -127 c-1 -18 -18 -35 -24 -24 -4 6 -4 16 -1 21 7 12 25
13 25 3z"/>
<path d="M3360 3823 c0 -29 -72 -95 -96 -87 -15 6 -17 4 -7 -6 16 -18 -70
-120 -101 -120 -19 0 -18 -2 9 -26 17 -14 60 -55 98 -91 53 -52 67 -61 67 -45
0 11 3 27 6 36 5 12 0 16 -20 16 -33 0 -75 21 -98 49 -10 12 -18 23 -18 25 0
2 22 28 49 57 l50 54 31 -30 c20 -19 29 -36 26 -49 -4 -16 -1 -15 21 5 22 22
23 24 6 27 -22 5 -63 41 -63 57 0 15 70 85 85 85 8 0 27 -17 44 -37 23 -27 30
-46 27 -65 -4 -25 -3 -26 25 -16 36 12 36 17 1 48 -15 14 -54 49 -85 79 -45
42 -57 50 -57 34z"/>
<path d="M764 3777 c-21 -23 -32 -36 -24 -29 7 6 29 12 47 12 25 0 33 4 33 18
-1 42 -16 42 -56 -1z"/>
<path d="M1070 3681 c0 -36 0 -37 65 -7 l50 24 -35 -1 c-19 -1 -45 2 -57 6
-21 8 -23 5 -23 -22z"/>
<path d="M663 3684 c-17 -12 -14 -17 34 -65 29 -28 50 -55 47 -60 -3 -5 1 -9
8 -9 20 0 98 -82 98 -103 0 -26 8 -22 69 37 31 30 71 67 89 84 l34 29 -33 12
c-41 14 -41 14 -38 -6 3 -38 -2 -52 -36 -89 l-35 -38 -57 56 c-48 49 -55 59
-44 72 8 10 9 16 3 16 -6 0 -13 -6 -15 -12 -3 -8 -24 6 -56 38 -45 46 -52 50
-68 38z"/>
<path d="M830 3673 c0 -12 -3 -30 -7 -40 -5 -15 -4 -16 8 -7 8 7 22 13 32 15
17 4 16 7 -7 28 -25 24 -26 24 -26 4z"/>
<path d="M340 3226 c0 -9 18 -27 39 -41 37 -25 38 -28 28 -56 -6 -16 -14 -29
-18 -29 -3 0 -24 13 -47 30 -27 19 -43 26 -48 18 -4 -6 0 -15 9 -20 42 -23 78
-61 68 -71 -6 -6 -11 -18 -11 -26 1 -12 4 -11 12 4 6 11 12 22 14 24 9 10 55
-32 50 -45 -17 -42 -16 -46 8 -19 14 17 25 25 26 18 0 -6 8 -14 19 -18 10 -3
29 -14 41 -25 12 -11 27 -17 33 -13 9 5 0 14 -72 71 -20 16 -22 21 -12 41 14
25 39 22 80 -10 24 -19 51 -25 51 -11 0 4 -23 22 -51 40 -38 25 -49 37 -44 50
17 43 17 46 -3 24 -17 -20 -24 -22 -41 -12 -24 12 -25 18 -11 56 9 24 9 25 -5
14 -8 -7 -15 -19 -15 -26 0 -21 -12 -17 -58 17 -32 23 -42 27 -42 15z m124
-101 c16 -12 18 -19 8 -40 -13 -28 -21 -30 -46 -12 -13 9 -16 20 -11 40 8 30
21 33 49 12z"/>
<path d="M3724 3215 c15 -23 15 -25 -3 -35 -31 -16 -47 -12 -61 15 -7 14 -15
23 -17 21 -3 -2 1 -14 7 -26 14 -26 -3 -42 -64 -60 -27 -8 -35 -15 -28 -22 7
-7 26 -5 62 8 51 18 52 18 66 -1 23 -32 16 -41 -42 -60 -37 -11 -52 -21 -46
-27 7 -7 28 -4 61 7 54 18 81 11 81 -22 0 -8 5 -11 10 -8 7 4 6 13 -1 27 -6
11 -7 24 -2 28 13 13 53 22 53 13 0 -5 7 -18 16 -29 15 -18 15 -12 -1 27 -5
13 4 21 44 34 28 9 51 21 51 26 0 13 -21 11 -70 -6 -24 -8 -44 -14 -45 -13 -5
7 -25 47 -25 51 0 3 23 13 50 23 31 11 46 22 41 27 -6 6 -28 3 -57 -7 -44 -15
-48 -15 -60 2 -7 9 -14 20 -14 25 0 4 -5 7 -11 7 -7 0 -5 -10 5 -25z m43 -80
c10 -23 9 -27 -16 -40 -26 -13 -28 -12 -44 14 -16 27 -16 29 6 39 33 16 41 14
54 -13z"/>
<path d="M1742 2748 c2 -6 10 -13 16 -14 7 -1 8 0 2 3 -5 2 -8 9 -4 14 3 5 0
9 -6 9 -7 0 -10 -5 -8 -12z"/>
<path d="M2948 2733 l-438 -3 55 -71 c63 -81 108 -169 131 -254 22 -83 30
-244 14 -312 -6 -30 -10 -56 -8 -59 3 -2 88 62 190 144 102 81 254 201 338
267 274 214 352 277 348 280 -9 8 -234 11 -630 8z"/>
<path d="M1717 2723 c-4 -3 -7 -13 -7 -21 0 -18 13 -7 16 13 2 17 1 18 -9 8z"/>
<path d="M1916 2623 c-6 -14 -5 -15 5 -6 7 7 10 15 7 18 -3 3 -9 -2 -12 -12z"/>
<path d="M1970 2600 c-8 -6 -11 -10 -6 -10 4 0 1 -11 -8 -25 -9 -13 -16 -28
-16 -32 0 -4 5 0 11 10 6 9 14 15 19 12 9 -6 26 42 18 50 -2 2 -10 0 -18 -5z"/>
<path d="M1715 2590 c3 -5 8 -10 11 -10 2 0 4 5 4 10 0 6 -5 10 -11 10 -5 0
-7 -4 -4 -10z"/>
<path d="M2061 2504 c-12 -14 -11 -16 4 -12 10 1 20 9 23 16 5 17 -10 15 -27
-4z"/>
<path d="M2176 2445 c4 -8 10 -15 15 -15 4 0 6 7 3 15 -4 8 -10 15 -15 15 -4
0 -6 -7 -3 -15z"/>
<path d="M2090 2435 c-7 -9 -8 -15 -2 -15 5 0 12 7 16 15 3 8 4 15 2 15 -2 0
-9 -7 -16 -15z"/>
<path d="M3761 2316 c-6 -63 -14 -129 -18 -147 -5 -27 -4 -31 10 -26 16 6 132
-14 178 -31 22 -9 22 -9 -11 -20 -147 -46 -183 -53 -191 -40 -7 10 -9 10 -9
-2 0 -8 -3 -24 -6 -35 -4 -18 0 -20 38 -22 29 -1 37 1 24 6 -26 10 -19 14 109
51 157 47 160 60 20 83 -49 9 -102 20 -117 26 -29 11 -39 41 -13 41 17 0 20
16 5 25 -5 3 -10 19 -10 35 0 22 5 29 23 32 26 4 194 -17 220 -27 13 -6 17 -2
17 18 0 24 -2 25 -102 32 -57 5 -106 9 -110 10 -5 2 -15 3 -23 4 -22 2 -20 57
3 70 15 9 15 12 2 21 -8 5 -18 10 -21 10 -3 0 -11 -51 -18 -114z"/>
<path d="M2215 2409 c-10 -15 1 -22 37 -25 18 -1 25 0 16 3 -9 2 -16 10 -14
16 1 7 1 9 -1 5 -3 -5 -9 -8 -14 -8 -6 0 -7 5 -4 10 3 6 2 10 -4 10 -5 0 -13
-5 -16 -11z"/>
<path d="M2051 2370 c-25 -4 -60 -5 -79 -3 l-34 4 22 -31 c12 -16 26 -30 31
-30 5 0 7 -10 4 -22 -6 -27 2 -41 32 -57 30 -15 38 -14 23 4 -7 9 -8 15 -2 15
5 0 12 7 15 14 4 10 1 13 -7 10 -7 -3 -16 1 -19 8 -8 23 41 21 53 -2 6 -11 15
-20 21 -20 6 0 0 14 -12 31 -17 25 -27 30 -50 27 -49 -7 -29 24 24 37 15 4 27
11 27 16 0 5 -1 8 -2 8 -2 -1 -23 -5 -47 -9z"/>
<path d="M323 2348 c-26 -12 -33 -28 -40 -88 -5 -49 -31 -93 -56 -98 -9 -2
-28 8 -42 22 -14 14 -25 21 -25 15 0 -20 50 -59 75 -59 38 0 73 43 81 98 11
83 50 115 87 74 21 -23 22 -62 2 -88 -20 -26 -19 -34 5 -34 18 0 20 7 20 58
-1 60 -10 81 -47 100 -26 14 -31 14 -60 0z"/>
<path d="M2370 2323 c0 -34 4 -43 21 -48 11 -4 21 -5 23 -3 1 1 -8 23 -21 48
l-22 45 -1 -42z"/>
<path d="M2140 2340 c-9 -6 -10 -10 -3 -10 6 0 15 5 18 10 8 12 4 12 -15 0z"/>
<path d="M2318 2343 c-23 -6 -11 -33 14 -33 10 0 16 5 13 10 -3 6 -1 10 4 10
6 0 11 5 11 10 0 10 -12 11 -42 3z"/>
<path d="M161 2303 c0 -21 3 -31 6 -23 4 8 13 21 22 27 14 11 14 14 1 23 -25
16 -30 12 -29 -27z"/>
<path d="M2257 2310 c-3 -11 -1 -20 4 -20 5 0 9 9 9 20 0 11 -2 20 -4 20 -2 0
-6 -9 -9 -20z"/>
<path d="M2133 2252 c-5 -4 -7 -15 -4 -24 6 -17 7 -16 18 2 13 20 5 34 -14 22z"/>
<path d="M2428 2243 c7 -3 16 -2 19 1 4 3 -2 6 -13 5 -11 0 -14 -3 -6 -6z"/>
<path d="M2460 2226 c0 -2 9 -6 20 -9 11 -3 20 -1 20 4 0 5 -9 9 -20 9 -11 0
-20 -2 -20 -4z"/>
<path d="M2188 2197 c-7 -8 -20 -16 -28 -20 -9 -3 -4 -6 13 -6 15 -1 27 4 27
10 0 5 4 7 10 4 6 -3 7 1 4 9 -7 19 -9 20 -26 3z"/>
<path d="M2520 2190 c0 -6 7 -10 15 -10 8 0 15 2 15 4 0 2 -7 6 -15 10 -8 3
-15 1 -15 -4z"/>
<path d="M1927 2166 c52 -17 105 -54 97 -68 -4 -6 -3 -8 3 -5 6 4 25 -7 43
-23 18 -16 44 -37 56 -47 13 -10 24 -23 24 -30 0 -6 20 -28 45 -48 25 -21 42
-42 38 -48 -3 -6 -1 -7 5 -3 11 7 73 -30 81 -47 1 -4 12 10 23 31 19 40 58 64
58 35 0 -8 5 -11 10 -8 6 4 8 10 5 15 -3 4 2 10 10 14 8 3 15 10 15 16 0 6 -4
8 -10 5 -12 -8 -13 8 -1 20 11 13 20 115 10 115 -4 0 -11 -17 -14 -37 -13 -78
-38 -114 -77 -112 -7 0 -4 4 7 9 22 9 18 11 -37 13 -20 1 -34 -2 -31 -6 3 -5
-4 -4 -16 2 -11 7 -20 17 -18 24 1 7 -4 11 -11 9 -8 -1 -11 2 -8 7 3 5 2 20
-3 33 -6 12 -10 17 -10 11 -1 -16 -51 -17 -51 -2 0 5 -4 8 -9 5 -5 -3 -11 1
-15 9 -3 8 -14 15 -25 15 -28 0 -37 20 -9 21 21 1 21 1 -5 11 -15 5 -25 14
-21 19 3 5 -2 9 -11 9 -13 0 -14 -4 -4 -21 9 -18 5 -17 -33 8 -62 43 -104 63
-130 62 -16 0 -9 -5 19 -13z m279 -196 c3 -23 5 -24 12 -13 5 9 12 6 21 -10
13 -20 13 -21 -2 -8 -10 7 -17 10 -17 6 0 -4 -7 -2 -15 5 -8 7 -12 16 -9 21 3
5 -1 9 -9 9 -8 0 -18 7 -21 15 -5 14 -3 14 17 0 12 -8 23 -20 23 -25z"/>
<path d="M2260 2149 c0 -6 -7 -9 -15 -6 -14 6 -32 -10 -22 -19 10 -10 57 9 57
22 0 8 -4 14 -10 14 -5 0 -10 -5 -10 -11z"/>
<path d="M2421 2123 c1 -22 2 -23 6 -8 3 11 10 23 17 27 7 5 5 8 -6 8 -13 0
-18 -7 -17 -27z"/>
<path d="M434 2120 c-14 -14 -214 -52 -237 -46 -13 3 -17 0 -13 -11 3 -8 6
-21 6 -29 0 -11 5 -12 18 -6 16 8 71 21 176 41 27 5 55 7 63 4 11 -4 12 1 7
23 -9 36 -8 36 -20 24z"/>
<path d="M2190 2110 c0 -5 5 -10 10 -10 6 0 10 5 10 10 0 6 -4 10 -10 10 -5 0
-10 -4 -10 -10z"/>
<path d="M2211 2074 c0 -11 3 -14 6 -6 3 7 2 16 -1 19 -3 4 -6 -2 -5 -13z"/>
<path d="M1926 2065 c4 -8 10 -15 15 -15 5 0 9 7 9 15 0 8 -7 15 -15 15 -9 0
-12 -6 -9 -15z"/>
<path d="M1870 2040 c0 -5 5 -10 11 -10 5 0 7 5 4 10 -3 6 -8 10 -11 10 -2 0
-4 -4 -4 -10z"/>
<path d="M2006 2024 c-4 -10 -1 -14 6 -12 15 5 23 28 10 28 -5 0 -13 -7 -16
-16z"/>
<path d="M1833 2010 c1 -11 5 -20 9 -20 11 0 10 28 -1 35 -6 3 -9 -4 -8 -15z"/>
<path d="M455 2000 c-3 -5 -16 -10 -28 -10 -16 0 -18 -3 -8 -9 10 -6 -9 -31
-78 -97 -85 -82 -104 -111 -70 -107 8 0 59 13 114 28 55 14 108 24 117 22 20
-6 26 27 8 38 -5 3 -10 2 -10 -4 0 -11 -97 -43 -165 -55 l-40 -7 80 75 c44 41
87 75 96 76 12 0 15 7 11 25 -5 29 -18 40 -27 25z"/>
<path d="M2065 2000 c-3 -5 -1 -10 4 -10 6 0 11 5 11 10 0 6 -2 10 -4 10 -3 0
-8 -4 -11 -10z"/>
<path d="M3808 1983 c6 -2 18 -2 25 0 6 3 1 5 -13 5 -14 0 -19 -2 -12 -5z"/>
<path d="M335 1965 c-39 -14 -40 -14 -5 -8 41 7 82 22 60 22 -8 0 -33 -7 -55
-14z"/>
<path d="M3915 1959 c33 -10 61 -19 63 -19 1 0 2 8 2 18 0 14 -10 17 -63 18
l-62 2 60 -19z"/>
<path d="M1920 1961 c0 -6 5 -13 10 -16 6 -3 10 1 10 9 0 9 -4 16 -10 16 -5 0
-10 -4 -10 -9z"/>
<path d="M2670 1944 c-9 -23 -13 -26 -21 -14 -8 11 -9 8 -5 -12 5 -21 -5 -43
-45 -102 -28 -42 -57 -76 -64 -76 -8 0 -21 10 -29 22 l-16 22 -16 -22 c-12
-17 -19 -20 -28 -12 -16 12 -70 10 -57 -3 5 -5 7 -15 5 -22 -3 -6 3 -18 12
-26 16 -12 17 -12 11 4 -9 25 0 21 19 -8 16 -24 16 -27 -2 -46 -24 -26 -87
-59 -122 -64 -15 -2 -44 -10 -64 -19 -20 -9 -43 -14 -50 -11 -7 3 -20 0 -28
-5 -13 -9 -13 -12 4 -25 62 -47 274 -213 366 -285 59 -47 156 -123 215 -170
210 -165 260 -205 280 -222 10 -10 25 -16 31 -14 7 3 56 -11 110 -31 114 -40
141 -46 148 -35 5 9 2 13 -96 120 -32 35 -58 73 -58 84 0 21 0 21 -21 2 -19
-17 -19 -19 -2 -25 23 -9 148 -149 133 -149 -15 0 -191 69 -205 80 -6 5 -17 5
-25 0 -8 -6 -18 -10 -21 -10 -4 0 -19 39 -34 88 -15 48 -44 141 -65 207 -40
122 -185 602 -222 730 -11 39 -22 72 -24 74 -2 2 -8 -9 -14 -25z m-225 -204
c3 -5 1 -10 -4 -10 -6 0 -11 5 -11 10 0 6 2 10 4 10 3 0 8 -4 11 -10z m61 -1
l28 -10 -29 -24 c-27 -21 -32 -22 -47 -8 -15 14 -15 16 0 34 19 22 14 21 48 8z"/>
<path d="M2470 1731 c0 -6 4 -13 10 -16 6 -3 7 1 4 9 -7 18 -14 21 -14 7z"/>
<path d="M1987 1938 c17 -19 33 -15 33 7 0 10 -9 14 -25 13 -22 -2 -23 -4 -8
-20z"/>
<path d="M210 1933 c0 -21 14 -22 50 -3 l35 18 -42 -1 c-26 -1 -43 -7 -43 -14z"/>
<path d="M2075 1920 c-3 -5 -1 -10 4 -10 6 0 11 5 11 10 0 6 -2 10 -4 10 -3 0
-8 -4 -11 -10z"/>
<path d="M3689 1920 c-5 -27 -3 -35 6 -35 24 -1 164 -40 202 -56 36 -15 42
-16 47 -2 10 24 7 33 -10 33 -22 0 -195 48 -216 60 -22 13 -28 13 -29 0z"/>
<path d="M2119 1901 c11 -7 11 -9 0 -13 -9 -3 -8 -6 5 -11 10 -4 15 -3 11 3
-3 6 0 10 7 10 9 0 9 3 -2 10 -8 5 -19 10 -25 10 -5 0 -4 -4 4 -9z"/>
<path d="M2020 1875 c0 -8 4 -15 8 -15 5 0 9 7 9 15 0 8 -4 15 -9 15 -4 0 -8
-7 -8 -15z"/>
<path d="M2180 1874 c10 -11 9 -14 -6 -14 -14 0 -12 -4 10 -15 15 -8 36 -15
45 -14 9 0 4 7 -14 15 -22 11 -24 14 -7 10 32 -6 27 8 -9 21 -26 10 -29 10
-19 -3z"/>
<path d="M1947 1874 c-4 -4 -7 -17 -7 -28 0 -19 1 -19 17 -3 12 11 14 20 7 27
-6 6 -13 7 -17 4z"/>
<path d="M2253 1865 c-13 -14 -7 -25 13 -25 7 0 11 7 10 15 -3 22 -10 24 -23
10z"/>
<path d="M2338 1828 c-8 -20 0 -48 13 -48 5 0 9 -5 9 -10 0 -6 -11 -8 -27 -4
l-28 6 28 -20 c22 -15 25 -21 13 -25 -8 -3 -18 -2 -20 2 -6 9 -82 -2 -93 -13
-4 -3 23 -6 58 -6 87 0 96 11 69 75 -5 11 -10 29 -12 40 -3 18 -4 18 -10 3z"/>
<path d="M2275 1810 c4 -6 11 -8 16 -5 14 9 11 15 -7 15 -8 0 -12 -5 -9 -10z"/>
<path d="M3656 1792 l-16 -30 30 11 c34 13 36 19 16 36 -12 10 -18 7 -30 -17z"/>
<path d="M504 1798 c-4 -6 0 -16 8 -22 26 -19 39 -53 25 -64 -16 -13 -195 -82
-213 -82 -15 0 -17 -10 -8 -34 4 -10 11 -13 18 -8 6 5 60 28 119 52 91 37 110
42 118 30 12 -21 11 -54 -3 -68 -9 -9 -6 -12 15 -12 l27 0 -21 53 c-11 28 -30
78 -42 110 -21 57 -30 67 -43 45z"/>
<path d="M2067 1804 c-8 -9 1 -24 14 -24 6 0 8 4 5 9 -4 5 0 12 6 14 9 4 8 6
-3 6 -9 1 -19 -2 -22 -5z"/>
<path d="M2224 1802 c-6 -4 -8 -17 -5 -30 6 -23 7 -22 18 7 11 31 8 37 -13 23z"/>
<path d="M3787 1769 c-9 -6 -14 -15 -11 -21 4 -7 2 -8 -4 -4 -6 4 -16 -4 -23
-16 -42 -82 -108 -92 -122 -18 -4 21 -4 20 -6 -7 -1 -44 28 -73 73 -73 31 0
39 6 71 54 54 82 120 86 128 8 l4 -37 1 36 c3 68 -56 110 -111 78z"/>
<path d="M2140 1740 c0 -5 5 -10 10 -10 6 0 10 5 10 10 0 6 -4 10 -10 10 -5 0
-10 -4 -10 -10z"/>
<path d="M2277 1686 c-12 -31 27 -36 43 -6 9 17 8 20 -14 20 -13 0 -26 -6 -29
-14z"/>
<path d="M1807 1676 c-10 -26 -9 -33 8 -33 17 0 17 3 6 31 -7 18 -8 18 -14 2z"/>
<path d="M2207 1671 c9 -11 20 -18 25 -15 10 6 -16 34 -31 34 -6 0 -3 -9 6
-19z"/>
<path d="M2386 1665 c-3 -9 0 -15 9 -15 16 0 20 16 6 24 -5 3 -11 -1 -15 -9z"/>
<path d="M3856 1615 c-11 -8 -29 -15 -39 -15 -20 0 -20 0 -1 -21 18 -19 19
-20 32 -2 16 21 34 53 30 53 -2 0 -12 -7 -22 -15z"/>
<path d="M2105 1591 c-3 -5 -2 -12 3 -15 5 -3 9 1 9 9 0 17 -3 19 -12 6z"/>
<path d="M2145 1580 c-3 -5 -1 -10 4 -10 6 0 11 5 11 10 0 6 -2 10 -4 10 -3 0
-8 -4 -11 -10z"/>
<path d="M700 1390 c0 -5 -38 -35 -84 -66 -88 -58 -109 -86 -98 -127 10 -38
49 -77 75 -77 21 0 137 66 162 92 13 14 -7 3 -71 -39 -73 -47 -106 -52 -133
-18 -39 51 -30 69 67 132 48 31 95 56 104 55 17 -1 17 2 3 29 -16 30 -25 37
-25 19z"/>
<path d="M3447 1353 c-12 -11 -8 -33 6 -33 7 0 48 -24 92 -52 93 -62 88 -65
-65 -44 -94 13 -106 12 -117 -2 -11 -13 -8 -18 17 -34 37 -22 51 -24 24 -2
-18 15 -18 15 6 10 59 -11 248 -18 253 -9 4 6 -36 38 -88 73 -53 34 -101 71
-109 81 -7 10 -16 16 -19 12z"/>
<path d="M777 1240 c-3 -10 -2 -19 2 -18 24 3 32 -4 26 -22 -4 -14 -2 -20 9
-20 8 0 22 -3 31 -6 11 -5 5 9 -17 39 -37 52 -44 55 -51 27z"/>
<path d="M866 1149 c5 -17 -11 -35 -94 -100 -28 -22 -49 -46 -45 -51 3 -6 2
-9 -3 -5 -5 3 -19 0 -31 -6 -22 -12 -22 -12 -3 -37 15 -19 20 -21 20 -9 0 9
16 29 35 43 19 15 61 50 92 77 l58 50 17 -21 c10 -12 18 -31 18 -41 0 -12 7
-19 20 -19 17 0 19 3 11 18 -17 28 -101 118 -95 101z"/>
<path d="M3445 1147 c48 -33 75 -49 75 -44 0 6 -77 57 -87 57 -4 0 1 -6 12
-13z"/>
<path d="M3260 1091 c-42 -42 -47 -73 -18 -128 59 -116 223 -120 244 -7 10 53
-48 146 -79 127 -6 -3 -7 -1 -3 5 10 16 -27 32 -74 32 -32 0 -48 -6 -70 -29z
m136 -27 c40 -31 74 -83 74 -113 0 -30 -35 -61 -69 -61 -15 0 -45 12 -66 26
-98 66 -123 149 -53 179 37 15 62 8 114 -31z"/>
<path d="M3547 1075 c22 -30 25 -30 41 -4 11 18 11 20 0 17 -7 -3 -23 -1 -36
3 -23 9 -23 9 -5 -16z"/>
<path d="M1075 846 c-30 -30 -25 -67 15 -113 35 -40 46 -74 31 -101 -14 -27
-45 -36 -73 -22 -22 11 -22 11 -3 -5 13 -10 32 -14 53 -11 39 5 37 3 56 40 17
33 9 62 -30 114 -34 44 -36 82 -5 98 42 21 104 -28 88 -70 -7 -18 1 -20 22 -7
11 7 8 16 -14 45 -48 63 -98 74 -140 32z"/>
<path d="M3118 764 c23 -28 48 -57 57 -64 8 -7 15 -21 15 -31 0 -12 5 -16 15
-13 17 7 20 34 4 34 -7 0 -39 28 -72 63 -55 57 -56 58 -19 11z"/>
<path d="M1280 744 c0 -8 -18 -47 -41 -85 -61 -106 -63 -151 -5 -181 20 -10
19 -9 -1 11 -27 26 -29 48 -7 79 8 12 12 28 8 35 -4 6 -3 8 1 4 5 -4 23 18 41
49 18 31 37 60 44 64 8 5 7 12 -5 24 -21 20 -35 21 -35 0z"/>
<path d="M2846 733 c-2 -5 -56 -35 -120 -68 -64 -32 -111 -62 -106 -65 13 -8
70 -177 70 -206 0 -13 -10 -30 -22 -38 -12 -9 -18 -16 -12 -16 17 0 44 35 44
58 0 11 -13 60 -30 109 -34 101 -35 107 -15 100 8 -4 27 7 46 25 l31 32 18
-24 c9 -13 37 -64 61 -114 24 -50 44 -92 45 -94 1 -2 12 2 24 8 13 7 18 15 13
19 -5 3 -36 53 -67 110 -55 99 -57 106 -39 119 10 7 30 11 46 8 24 -5 27 -2
27 19 0 25 -5 31 -14 18z"/>
<path d="M967 711 c-17 -6 -15 -11 17 -50 20 -24 36 -39 36 -34 0 5 -5 14 -11
20 -6 6 -14 24 -18 41 -5 23 -10 28 -24 23z"/>
<path d="M1420 660 c0 -13 5 -18 15 -14 8 4 15 10 15 14 0 4 -7 10 -15 14 -10
4 -15 -1 -15 -14z"/>
<path d="M1484 624 c-1 -13 2 -24 6 -24 4 0 13 -51 20 -112 7 -62 14 -120 15
-128 1 -8 8 -16 16 -18 9 -1 25 27 48 83 18 48 31 88 29 91 -3 2 -15 -22 -27
-55 -12 -33 -26 -63 -31 -66 -10 -6 -23 83 -24 172 -1 57 -3 63 -26 71 -22 8
-25 6 -26 -14z"/>
<path d="M1402 618 c-14 -19 -56 -105 -44 -93 13 14 65 105 59 105 -2 0 -9 -6
-15 -12z"/>
<path d="M1628 559 c-5 -30 -4 -31 10 -13 9 12 16 15 19 8 2 -8 19 -10 45 -7
63 9 64 3 19 -179 -10 -43 -15 -78 -11 -78 5 0 16 -3 26 -7 12 -4 15 -3 10 5
-4 7 0 40 9 74 8 35 19 83 24 108 5 25 11 52 15 61 5 12 -8 19 -66 33 -40 10
-78 20 -84 22 -7 3 -14 -9 -16 -27z"/>
<path d="M2465 561 c-3 -5 -1 -12 4 -15 5 -4 20 -37 32 -74 39 -118 73 -158
122 -143 20 5 20 6 -5 9 -14 2 -33 13 -40 25 -18 27 -68 169 -68 191 0 17 -35
22 -45 7z"/>
<path d="M1855 510 c19 -21 35 -18 35 6 0 9 -10 14 -27 14 -25 0 -26 -1 -8
-20z"/>
<path d="M2278 495 c-4 -35 8 -50 14 -17 3 12 12 4 31 -30 20 -33 26 -53 21
-72 -8 -32 -24 -33 -53 -2 -16 17 -21 31 -16 52 l5 29 -12 -26 c-7 -14 -19
-24 -25 -22 -16 6 -17 -13 -2 -23 14 -8 4 -75 -17 -117 -15 -28 -15 -29 1 -23
9 3 26 6 38 6 16 0 18 3 9 12 -13 13 -17 108 -4 108 4 0 18 -9 32 -20 25 -19
25 -19 47 2 l22 20 21 -41 c11 -23 19 -45 16 -49 -2 -4 11 -6 30 -4 l35 4 -19
22 c-11 11 -27 36 -37 55 -14 28 -15 39 -6 54 15 23 7 34 -13 18 -11 -9 -19
-3 -40 33 -14 25 -26 49 -26 55 0 6 -11 11 -24 11 -20 0 -25 -6 -28 -35z"/>
<path d="M1330 495 c-7 -9 -11 -17 -9 -20 3 -2 10 5 17 15 14 24 10 26 -8 5z"/>
<path d="M1426 465 c-4 -14 -15 -34 -26 -45 -19 -19 -19 -22 12 -33 12 -4 15
-2 12 8 -3 8 0 30 6 50 7 20 10 38 7 41 -2 3 -8 -7 -11 -21z"/>
<path d="M1273 463 c9 -2 23 -2 30 0 6 3 -1 5 -18 5 -16 0 -22 -2 -12 -5z"/>
</g>
</svg>
